<svg version="1.1" viewBox="0.0 0.0 1280.0 720.0" fill="none" stroke="none" stroke-linecap="square" stroke-miterlimit="10" xmlns:xlink="http://www.w3.org/1999/xlink" xmlns="http://www.w3.org/2000/svg"><clipPath id="p1.0"><path d="m0 0l1280.0 0l0 720.0l-1280.0 0l0 -720.0z" clip-rule="nonzero"/></clipPath><g clip-path="url(#p1.0)"><path fill="#000000" fill-opacity="0.0" d="m0 0l1280.0 0l0 720.0l-1280.0 0z" fill-rule="evenodd"/><path fill="#000000" d="m343.59003 245.28902l0 0c0 -36.995773 22.646515 -66.98677 50.582397 -66.98677l0 0c13.415314 0 26.281128 7.0575104 35.76718 19.61998c9.486053 12.562454 14.815247 29.6008 14.815247 47.36679l0 0c0 36.995773 -22.646515 66.98677 -50.582428 66.98677l0 0c-27.935883 0 -50.582397 -29.990997 -50.582397 -66.98677z" fill-rule="evenodd"/><path stroke="#000000" stroke-width="1.3333333333333333" stroke-miterlimit="800.0" stroke-linecap="butt" d="m343.59003 245.28902l0 0c0 -36.995773 22.646515 -66.98677 50.582397 -66.98677l0 0c13.415314 0 26.281128 7.0575104 35.76718 19.61998c9.486053 12.562454 14.815247 29.6008 14.815247 47.36679l0 0c0 36.995773 -22.646515 66.98677 -50.582428 66.98677l0 0c-27.935883 0 -50.582397 -29.990997 -50.582397 -66.98677z" fill-rule="evenodd"/><path fill="#000000" fill-opacity="0.0" d="m394.17242 312.2758l6.3937073 168.81891" fill-rule="evenodd"/><path stroke="#000000" stroke-width="6.666666666666667" stroke-miterlimit="800.0" stroke-linecap="butt" d="m394.17242 312.2758l6.3937073 168.81891" fill-rule="evenodd"/><path fill="#000000" fill-opacity="0.0" d="m399.91885 477.7412l-55.44821 149.08234" fill-rule="evenodd"/><path stroke="#000000" stroke-width="6.666666666666667" stroke-miterlimit="800.0" stroke-linecap="butt" d="m399.91885 477.7412l-55.44821 149.08234" fill-rule="evenodd"/><path fill="#000000" fill-opacity="0.0" d="m400.55173 481.10342l58.661316 94.896576" fill-rule="evenodd"/><path stroke="#000000" stroke-width="6.666666666666667" stroke-miterlimit="800.0" stroke-linecap="butt" d="m400.55173 481.10342l58.661316 94.896576" fill-rule="evenodd"/><path fill="#000000" fill-opacity="0.0" d="m459.213 574.68243l-14.45816 53.4588" fill-rule="evenodd"/><path stroke="#000000" stroke-width="6.666666666666667" stroke-miterlimit="800.0" stroke-linecap="butt" d="m459.213 574.68243l-14.45816 53.4588" fill-rule="evenodd"/><path fill="#000000" fill-opacity="0.0" d="m398.8967 405.1683l-49.606415 -16.957367" fill-rule="evenodd"/><path stroke="#000000" stroke-width="6.666666666666667" stroke-miterlimit="800.0" stroke-linecap="butt" d="m398.8967 405.1683l-49.606415 -16.957367" fill-rule="evenodd"/><path fill="#000000" fill-opacity="0.0" d="m349.29028 349.23358l1.6551208 42.32852" fill-rule="evenodd"/><path stroke="#000000" stroke-width="6.666666666666667" stroke-miterlimit="800.0" stroke-linecap="butt" d="m349.29028 349.23358l1.6551208 42.32852" fill-rule="evenodd"/><path fill="#000000" fill-opacity="0.0" d="m398.89658 404.38098l38.823395 18.600311" fill-rule="evenodd"/><path stroke="#000000" stroke-width="6.666666666666667" stroke-miterlimit="800.0" stroke-linecap="butt" d="m398.89658 404.38098l38.823395 18.600311" fill-rule="evenodd"/><path fill="#000000" fill-opacity="0.0" d="m435.0426 422.9813l36.1705 -23.107513" fill-rule="evenodd"/><path stroke="#000000" stroke-width="6.666666666666667" stroke-miterlimit="800.0" stroke-linecap="butt" d="m435.0426 422.9813l36.1705 -23.107513" fill-rule="evenodd"/><path fill="#5c4812" d="m306.4866 336.41364l0 0c0 -8.284119 7.150482 -15.931641 18.731537 -20.03357c11.581055 -4.1019287 25.812683 -4.027832 37.281525 0.19412231c11.468842 4.2219543 18.41211 11.942841 18.188782 20.22583l-37.098328 -0.38638306z" fill-rule="evenodd"/><path fill="#000000" fill-opacity="0.0" d="m306.4866 336.41364l0 0c0 -8.284119 7.150482 -15.931641 18.731537 -20.03357c11.581055 -4.1019287 25.812683 -4.027832 37.281525 0.19412231c11.468842 4.2219543 18.41211 11.942841 18.188782 20.22583" fill-rule="evenodd"/><path stroke="#5c4812" stroke-width="1.0" stroke-miterlimit="800.0" stroke-linecap="butt" d="m306.4866 336.41364l0 0c0 -8.284119 7.150482 -15.931641 18.731537 -20.03357c11.581055 -4.1019287 25.812683 -4.027832 37.281525 0.19412231c11.468842 4.2219543 18.41211 11.942841 18.188782 20.22583" fill-rule="evenodd"/><path fill="#5c4812" d="m380.69366 336.41367l0 0c0 8.284149 -7.150482 15.931641 -18.731537 20.03357c-11.581055 4.101959 -25.812714 4.027832 -37.281555 -0.19412231c-11.468811 -4.2219543 -18.41211 -11.942841 -18.188751 -20.22583l37.098328 0.38638306z" fill-rule="evenodd"/><path fill="#000000" fill-opacity="0.0" d="m380.69366 336.41367l0 0c0 8.284149 -7.150482 15.931641 -18.731537 20.03357c-11.581055 4.101959 -25.812714 4.027832 -37.281555 -0.19412231c-11.468811 -4.2219543 -18.41211 -11.942841 -18.188751 -20.22583" fill-rule="evenodd"/><path stroke="#5c4812" stroke-width="1.0" stroke-miterlimit="800.0" stroke-linecap="butt" d="m380.69366 336.41367l0 0c0 8.284149 -7.150482 15.931641 -18.731537 20.03357c-11.581055 4.101959 -25.812714 4.027832 -37.281555 -0.19412231c-11.468811 -4.2219543 -18.41211 -11.942841 -18.188751 -20.22583" fill-rule="evenodd"/><path fill="#000000" fill-opacity="0.0" d="m319.05878 336.41354l52.624786 0" fill-rule="evenodd"/><path stroke="#ffffff" stroke-width="1.0" stroke-miterlimit="800.0" stroke-linecap="butt" d="m319.05878 336.41354l52.624786 0" fill-rule="evenodd"/><path fill="#000000" fill-opacity="0.0" d="m325.27454 330.00336l0 12.820068" fill-rule="evenodd"/><path stroke="#ffffff" stroke-width="1.0" stroke-miterlimit="800.0" stroke-linecap="butt" d="m325.27454 330.00336l0 12.820068" fill-rule="evenodd"/><path fill="#000000" fill-opacity="0.0" d="m354.16986 330.00336l0 12.820068" fill-rule="evenodd"/><path stroke="#ffffff" stroke-width="1.0" stroke-miterlimit="800.0" stroke-linecap="butt" d="m354.16986 330.00336l0 12.820068" fill-rule="evenodd"/><path fill="#000000" fill-opacity="0.0" d="m363.55368 330.00336l0 12.820068" fill-rule="evenodd"/><path stroke="#ffffff" stroke-width="1.0" stroke-miterlimit="800.0" stroke-linecap="butt" d="m363.55368 330.00336l0 12.820068" fill-rule="evenodd"/><path fill="#000000" fill-opacity="0.0" d="m343.59015 330.00336l0 12.820068" fill-rule="evenodd"/><path stroke="#ffffff" stroke-width="1.0" stroke-miterlimit="800.0" stroke-linecap="butt" d="m343.59015 330.00336l0 12.820068" fill-rule="evenodd"/><path fill="#000000" fill-opacity="0.0" d="m334.4906 330.00336l0 12.820068" fill-rule="evenodd"/><path stroke="#ffffff" stroke-width="1.0" stroke-miterlimit="800.0" stroke-linecap="butt" d="m334.4906 330.00336l0 12.820068" fill-rule="evenodd"/><path fill="#000000" d="m777.5344 440.48862l0 0c0 -22.430939 15.234558 -40.614807 34.027344 -40.614807l0 0c9.024597 0 17.679565 4.2790527 24.060913 11.895813c6.3813477 7.6167297 9.96637 17.947266 9.96637 28.718994l0 0c0 22.430939 -15.234558 40.614807 -34.027283 40.614807l0 0c-18.792786 0 -34.027344 -18.183868 -34.027344 -40.614807z" fill-rule="evenodd"/><path stroke="#000000" stroke-width="1.3333333333333333" stroke-miterlimit="800.0" stroke-linecap="butt" d="m777.5344 440.48862l0 0c0 -22.430939 15.234558 -40.614807 34.027344 -40.614807l0 0c9.024597 0 17.679565 4.2790527 24.060913 11.895813c6.3813477 7.6167297 9.96637 17.947266 9.96637 28.718994l0 0c0 22.430939 -15.234558 40.614807 -34.027283 40.614807l0 0c-18.792786 0 -34.027344 -18.183868 -34.027344 -40.614807z" fill-rule="evenodd"/><path fill="#000000" fill-opacity="0.0" d="m811.56177 481.10342l-1.4803467 80.44095" fill-rule="evenodd"/><path stroke="#000000" stroke-width="5.333333333333333" stroke-miterlimit="800.0" stroke-linecap="butt" d="m811.56177 481.10342l-1.4803467 80.44095" fill-rule="evenodd"/><path fill="#000000" fill-opacity="0.0" d="m810.0822 561.5343l-23.01355 65.289246" fill-rule="evenodd"/><path stroke="#000000" stroke-width="5.333333333333333" stroke-miterlimit="800.0" stroke-linecap="butt" d="m810.0822 561.5343l-23.01355 65.289246" fill-rule="evenodd"/><path fill="#000000" fill-opacity="0.0" d="m810.0822 561.5343l35.506836 65.289246" fill-rule="evenodd"/><path stroke="#000000" stroke-width="5.333333333333333" stroke-miterlimit="800.0" stroke-linecap="butt" d="m810.0822 561.5343l35.506836 65.289246" fill-rule="evenodd"/><path fill="#000000" fill-opacity="0.0" d="m777.5344 502.35614l31.232666 14.46582" fill-rule="evenodd"/><path stroke="#000000" stroke-width="5.333333333333333" stroke-miterlimit="800.0" stroke-linecap="butt" d="m777.5344 502.35614l31.232666 14.46582" fill-rule="evenodd"/><path fill="#000000" fill-opacity="0.0" d="m769.3271 531.76044l39.440002 -4.5354614" fill-rule="evenodd"/><path stroke="#000000" stroke-width="5.333333333333333" stroke-miterlimit="800.0" stroke-linecap="butt" d="m769.3271 531.76044l39.440002 -4.5354614" fill-rule="evenodd"/><path fill="#4472c4" d="m782.55896 412.57483c13.806152 -26.598907 44.472717 -37.94644 69.33441 -25.655731c24.861633 12.290741 34.970093 43.79602 22.854248 71.23056c-12.115784 27.43454 -42.095154 40.92404 -67.78052 30.498535l20.868408 -51.581238z" fill-rule="evenodd"/><path stroke="#31538f" stroke-width="1.3333333333333333" stroke-miterlimit="800.0" stroke-linecap="butt" d="m782.55896 412.57483c13.806152 -26.598907 44.472717 -37.94644 69.33441 -25.655731c24.861633 12.290741 34.970093 43.79602 22.854248 71.23056c-12.115784 27.43454 -42.095154 40.92404 -67.78052 30.498535l20.868408 -51.581238z" fill-rule="evenodd"/><path fill="#000000" fill-opacity="0.0" d="m821.6667 458.80356l-48.2417 -18.67978" fill-rule="evenodd"/><path stroke="#ffffff" stroke-width="1.0" stroke-miterlimit="800.0" stroke-linecap="butt" d="m821.6667 458.80356l-48.2417 -18.67978" fill-rule="evenodd"/><path fill="#000000" fill-opacity="0.0" d="m817.35425 469.52008l-40.477173 -13.670319" fill-rule="evenodd"/><path stroke="#ffffff" stroke-width="1.0" stroke-miterlimit="800.0" stroke-linecap="butt" d="m817.35425 469.52008l-40.477173 -13.670319" fill-rule="evenodd"/><path fill="#000000" fill-opacity="0.0" d="m780.90594 458.77386l3.2334595 -16.25113" fill-rule="evenodd"/><path stroke="#ffffff" stroke-width="1.0" stroke-miterlimit="800.0" stroke-linecap="butt" d="m780.90594 458.77386l3.2334595 -16.25113" fill-rule="evenodd"/><path fill="#000000" fill-opacity="0.0" d="m785.2977 460.6193l3.2335205 -16.25113" fill-rule="evenodd"/><path stroke="#ffffff" stroke-width="1.0" stroke-miterlimit="800.0" stroke-linecap="butt" d="m785.2977 460.6193l3.2335205 -16.25113" fill-rule="evenodd"/></g></svg>