<svg version="1.1" viewBox="0.0 0.0 1280.0 720.0" fill="none" stroke="none" stroke-linecap="square" stroke-miterlimit="10" xmlns:xlink="http://www.w3.org/1999/xlink" xmlns="http://www.w3.org/2000/svg"><clipPath id="p2.0"><path d="m0 0l1280.0 0l0 720.0l-1280.0 0l0 -720.0z" clip-rule="nonzero"/></clipPath><g clip-path="url(#p2.0)"><path fill="#000000" fill-opacity="0.0" d="m0 0l1280.0 0l0 720.0l-1280.0 0z" fill-rule="evenodd"/><path fill="#000000" d="m359.66437 243.97133l0 0c0 -36.995773 22.646515 -66.98677 50.582428 -66.98677l0 0c13.415283 0 26.281128 7.0575104 35.76715 19.61998c9.486053 12.562454 14.815247 29.6008 14.815247 47.36679l0 0c0 36.995773 -22.646515 66.98677 -50.582397 66.98677l0 0c-27.935913 0 -50.582428 -29.990997 -50.582428 -66.98677z" fill-rule="evenodd"/><path stroke="#000000" stroke-width="1.3333333333333333" stroke-miterlimit="800.0" stroke-linecap="butt" d="m359.66437 243.97133l0 0c0 -36.995773 22.646515 -66.98677 50.582428 -66.98677l0 0c13.415283 0 26.281128 7.0575104 35.76715 19.61998c9.486053 12.562454 14.815247 29.6008 14.815247 47.36679l0 0c0 36.995773 -22.646515 66.98677 -50.582397 66.98677l0 0c-27.935913 0 -50.582428 -29.990997 -50.582428 -66.98677z" fill-rule="evenodd"/><path fill="#000000" fill-opacity="0.0" d="m410.15454 309.4842l6.322937 170.1453" fill-rule="evenodd"/><path stroke="#000000" stroke-width="6.666666666666667" stroke-miterlimit="800.0" stroke-linecap="butt" d="m410.15454 309.4842l6.322937 170.1453" fill-rule="evenodd"/><path fill="#000000" fill-opacity="0.0" d="m416.62604 479.7857l58.661316 94.89661" fill-rule="evenodd"/><path stroke="#000000" stroke-width="6.666666666666667" stroke-miterlimit="800.0" stroke-linecap="butt" d="m416.62604 479.7857l58.661316 94.89661" fill-rule="evenodd"/><path fill="#000000" fill-opacity="0.0" d="m475.28735 573.3647l-14.45816 53.4588" fill-rule="evenodd"/><path stroke="#000000" stroke-width="6.666666666666667" stroke-miterlimit="800.0" stroke-linecap="butt" d="m475.28735 573.3647l-14.45816 53.4588" fill-rule="evenodd"/><path fill="#000000" fill-opacity="0.0" d="m414.97113 403.8507l-54.426147 0.53030396" fill-rule="evenodd"/><path stroke="#000000" stroke-width="6.666666666666667" stroke-miterlimit="800.0" stroke-linecap="butt" d="m414.97113 403.8507l-54.426147 0.53030396" fill-rule="evenodd"/><path fill="#000000" fill-opacity="0.0" d="m342.6512 394.49188l1.6551208 42.32849" fill-rule="evenodd"/><path stroke="#000000" stroke-width="6.666666666666667" stroke-miterlimit="800.0" stroke-linecap="butt" d="m342.6512 394.49188l1.6551208 42.32849" fill-rule="evenodd"/><path fill="#000000" fill-opacity="0.0" d="m414.97092 403.06332l49.701843 10.617859" fill-rule="evenodd"/><path stroke="#000000" stroke-width="6.666666666666667" stroke-miterlimit="800.0" stroke-linecap="butt" d="m414.97092 403.06332l49.701843 10.617859" fill-rule="evenodd"/><path fill="#000000" fill-opacity="0.0" d="m460.43097 413.68115l28.246826 -25.470154" fill-rule="evenodd"/><path stroke="#000000" stroke-width="6.666666666666667" stroke-miterlimit="800.0" stroke-linecap="butt" d="m460.43097 413.68115l28.246826 -25.470154" fill-rule="evenodd"/><path fill="#000000" d="m483.24228 245.28902l0 0c0 -36.995773 22.646545 -66.98677 50.582428 -66.98677l0 0c13.415283 0 26.281128 7.0575104 35.76715 19.61998c9.486084 12.562454 14.815247 29.6008 14.815247 47.36679l0 0c0 36.995773 -22.646484 66.98677 -50.582397 66.98677l0 0c-27.935883 0 -50.582428 -29.990997 -50.582428 -66.98677z" fill-rule="evenodd"/><path stroke="#000000" stroke-width="1.3333333333333333" stroke-miterlimit="800.0" stroke-linecap="butt" d="m483.24228 245.28902l0 0c0 -36.995773 22.646545 -66.98677 50.582428 -66.98677l0 0c13.415283 0 26.281128 7.0575104 35.76715 19.61998c9.486084 12.562454 14.815247 29.6008 14.815247 47.36679l0 0c0 36.995773 -22.646484 66.98677 -50.582397 66.98677l0 0c-27.935883 0 -50.582428 -29.990997 -50.582428 -66.98677z" fill-rule="evenodd"/><path fill="#000000" fill-opacity="0.0" d="m533.64246 312.2757l6.3792114 168.8276" fill-rule="evenodd"/><path stroke="#000000" stroke-width="6.666666666666667" stroke-miterlimit="800.0" stroke-linecap="butt" d="m533.64246 312.2757l6.3792114 168.8276" fill-rule="evenodd"/><path fill="#000000" fill-opacity="0.0" d="m540.204 481.10342l58.661316 94.896576" fill-rule="evenodd"/><path stroke="#000000" stroke-width="6.666666666666667" stroke-miterlimit="800.0" stroke-linecap="butt" d="m540.204 481.10342l58.661316 94.896576" fill-rule="evenodd"/><path fill="#000000" fill-opacity="0.0" d="m598.8653 574.68243l-14.45813 53.4588" fill-rule="evenodd"/><path stroke="#000000" stroke-width="6.666666666666667" stroke-miterlimit="800.0" stroke-linecap="butt" d="m598.8653 574.68243l-14.45813 53.4588" fill-rule="evenodd"/><path fill="#000000" fill-opacity="0.0" d="m538.54895 405.1683l-49.606384 -16.957367" fill-rule="evenodd"/><path stroke="#000000" stroke-width="6.666666666666667" stroke-miterlimit="800.0" stroke-linecap="butt" d="m538.54895 405.1683l-49.606384 -16.957367" fill-rule="evenodd"/><path fill="#000000" fill-opacity="0.0" d="m488.9426 349.23358l1.6551208 42.32852" fill-rule="evenodd"/><path stroke="#000000" stroke-width="6.666666666666667" stroke-miterlimit="800.0" stroke-linecap="butt" d="m488.9426 349.23358l1.6551208 42.32852" fill-rule="evenodd"/><path fill="#000000" fill-opacity="0.0" d="m538.5489 404.38098l38.823425 18.600311" fill-rule="evenodd"/><path stroke="#000000" stroke-width="6.666666666666667" stroke-miterlimit="800.0" stroke-linecap="butt" d="m538.5489 404.38098l38.823425 18.600311" fill-rule="evenodd"/><path fill="#000000" fill-opacity="0.0" d="m574.69495 422.9813l36.17047 -23.107513" fill-rule="evenodd"/><path stroke="#000000" stroke-width="6.666666666666667" stroke-miterlimit="800.0" stroke-linecap="butt" d="m574.69495 422.9813l36.17047 -23.107513" fill-rule="evenodd"/><path fill="#000000" fill-opacity="0.0" d="m538.5489 481.1033l-16.906555 93.57913" fill-rule="evenodd"/><path stroke="#000000" stroke-width="6.666666666666667" stroke-miterlimit="800.0" stroke-linecap="butt" d="m538.5489 481.1033l-16.906555 93.57913" fill-rule="evenodd"/><path fill="#000000" fill-opacity="0.0" d="m521.00946 571.68536l-4.324524 61.11908" fill-rule="evenodd"/><path stroke="#000000" stroke-width="6.666666666666667" stroke-miterlimit="800.0" stroke-linecap="butt" d="m521.00946 571.68536l-4.324524 61.11908" fill-rule="evenodd"/><path fill="#000000" d="m611.58435 245.28902l0 0c0 -36.995773 22.646545 -66.98677 50.582397 -66.98677l0 0c13.415344 0 26.281128 7.0575104 35.767212 19.61998c9.486023 12.562454 14.815247 29.6008 14.815247 47.36679l0 0c0 36.995773 -22.646545 66.98677 -50.58246 66.98677l0 0c-27.935852 0 -50.582397 -29.990997 -50.582397 -66.98677z" fill-rule="evenodd"/><path stroke="#000000" stroke-width="1.3333333333333333" stroke-miterlimit="800.0" stroke-linecap="butt" d="m611.58435 245.28902l0 0c0 -36.995773 22.646545 -66.98677 50.582397 -66.98677l0 0c13.415344 0 26.281128 7.0575104 35.767212 19.61998c9.486023 12.562454 14.815247 29.6008 14.815247 47.36679l0 0c0 36.995773 -22.646545 66.98677 -50.58246 66.98677l0 0c-27.935852 0 -50.582397 -29.990997 -50.582397 -66.98677z" fill-rule="evenodd"/><path fill="#000000" fill-opacity="0.0" d="m662.1668 312.2758l6.393738 168.81891" fill-rule="evenodd"/><path stroke="#000000" stroke-width="6.666666666666667" stroke-miterlimit="800.0" stroke-linecap="butt" d="m662.1668 312.2758l6.393738 168.81891" fill-rule="evenodd"/><path fill="#000000" fill-opacity="0.0" d="m668.5461 481.10342l58.661316 94.896576" fill-rule="evenodd"/><path stroke="#000000" stroke-width="6.666666666666667" stroke-miterlimit="800.0" stroke-linecap="butt" d="m668.5461 481.10342l58.661316 94.896576" fill-rule="evenodd"/><path fill="#000000" fill-opacity="0.0" d="m727.20734 574.68243l-14.45813 53.4588" fill-rule="evenodd"/><path stroke="#000000" stroke-width="6.666666666666667" stroke-miterlimit="800.0" stroke-linecap="butt" d="m727.20734 574.68243l-14.45813 53.4588" fill-rule="evenodd"/><path fill="#000000" fill-opacity="0.0" d="m666.8911 405.1684l-54.426147 0.53027344" fill-rule="evenodd"/><path stroke="#000000" stroke-width="6.666666666666667" stroke-miterlimit="800.0" stroke-linecap="butt" d="m666.8911 405.1684l-54.426147 0.53027344" fill-rule="evenodd"/><path fill="#000000" fill-opacity="0.0" d="m610.5163 366.99698l1.6551514 42.32849" fill-rule="evenodd"/><path stroke="#000000" stroke-width="6.666666666666667" stroke-miterlimit="800.0" stroke-linecap="butt" d="m610.5163 366.99698l1.6551514 42.32849" fill-rule="evenodd"/><path fill="#000000" fill-opacity="0.0" d="m666.8909 404.38098l49.701843 10.617859" fill-rule="evenodd"/><path stroke="#000000" stroke-width="6.666666666666667" stroke-miterlimit="800.0" stroke-linecap="butt" d="m666.8909 404.38098l49.701843 10.617859" fill-rule="evenodd"/><path fill="#000000" fill-opacity="0.0" d="m712.2782 414.99884l28.246826 -25.470123" fill-rule="evenodd"/><path stroke="#000000" stroke-width="6.666666666666667" stroke-miterlimit="800.0" stroke-linecap="butt" d="m712.2782 414.99884l28.246826 -25.470123" fill-rule="evenodd"/><path fill="#000000" fill-opacity="0.0" d="m667.0733 479.62952l-16.906555 93.5791" fill-rule="evenodd"/><path stroke="#000000" stroke-width="6.666666666666667" stroke-miterlimit="800.0" stroke-linecap="butt" d="m667.0733 479.62952l-16.906555 93.5791" fill-rule="evenodd"/><path fill="#000000" fill-opacity="0.0" d="m649.5339 570.21155l7.529846 55.138123" fill-rule="evenodd"/><path stroke="#000000" stroke-width="6.666666666666667" stroke-miterlimit="800.0" stroke-linecap="butt" d="m649.5339 570.21155l7.529846 55.138123" fill-rule="evenodd"/><path fill="#000000" fill-opacity="0.0" d="m417.57468 478.943l-16.906555 93.5791" fill-rule="evenodd"/><path stroke="#000000" stroke-width="6.666666666666667" stroke-miterlimit="800.0" stroke-linecap="butt" d="m417.57468 478.943l-16.906555 93.5791" fill-rule="evenodd"/><path fill="#000000" fill-opacity="0.0" d="m400.03528 569.5251l7.529846 55.138123" fill-rule="evenodd"/><path stroke="#000000" stroke-width="6.666666666666667" stroke-miterlimit="800.0" stroke-linecap="butt" d="m400.03528 569.5251l7.529846 55.138123" fill-rule="evenodd"/><path fill="#000000" d="m235.62971 237.34006l0 0c0 -36.995773 22.64653 -66.98677 50.582413 -66.98677l0 0c13.415283 0 26.281128 7.0575104 35.76718 19.619965c9.486023 12.5624695 14.815247 29.600815 14.815247 47.366806l0 0c0 36.99579 -22.646515 66.986786 -50.582428 66.986786l0 0c-27.935883 0 -50.582413 -29.990997 -50.582413 -66.986786z" fill-rule="evenodd"/><path stroke="#000000" stroke-width="1.3333333333333333" stroke-miterlimit="800.0" stroke-linecap="butt" d="m235.62971 237.34006l0 0c0 -36.995773 22.64653 -66.98677 50.582413 -66.98677l0 0c13.415283 0 26.281128 7.0575104 35.76718 19.619965c9.486023 12.5624695 14.815247 29.600815 14.815247 47.366806l0 0c0 36.99579 -22.646515 66.986786 -50.582428 66.986786l0 0c-27.935883 0 -50.582413 -29.990997 -50.582413 -66.986786z" fill-rule="evenodd"/><path fill="#000000" fill-opacity="0.0" d="m288.3411 302.8529l6.322937 170.1453" fill-rule="evenodd"/><path stroke="#000000" stroke-width="6.666666666666667" stroke-miterlimit="800.0" stroke-linecap="butt" d="m288.3411 302.8529l6.322937 170.1453" fill-rule="evenodd"/><path fill="#000000" fill-opacity="0.0" d="m294.8126 473.15445l58.661316 94.896576" fill-rule="evenodd"/><path stroke="#000000" stroke-width="6.666666666666667" stroke-miterlimit="800.0" stroke-linecap="butt" d="m294.8126 473.15445l58.661316 94.896576" fill-rule="evenodd"/><path fill="#000000" fill-opacity="0.0" d="m353.4739 566.73346l-14.45816 53.45874" fill-rule="evenodd"/><path stroke="#000000" stroke-width="6.666666666666667" stroke-miterlimit="800.0" stroke-linecap="butt" d="m353.4739 566.73346l-14.45816 53.45874" fill-rule="evenodd"/><path fill="#000000" fill-opacity="0.0" d="m293.15768 397.21942l-54.426147 0.53027344" fill-rule="evenodd"/><path stroke="#000000" stroke-width="6.666666666666667" stroke-miterlimit="800.0" stroke-linecap="butt" d="m293.15768 397.21942l-54.426147 0.53027344" fill-rule="evenodd"/><path fill="#000000" fill-opacity="0.0" d="m236.7829 359.04797l1.6551056 42.32852" fill-rule="evenodd"/><path stroke="#000000" stroke-width="6.666666666666667" stroke-miterlimit="800.0" stroke-linecap="butt" d="m236.7829 359.04797l1.6551056 42.32852" fill-rule="evenodd"/><path fill="#000000" fill-opacity="0.0" d="m293.15747 396.432l51.442413 35.44388" fill-rule="evenodd"/><path stroke="#000000" stroke-width="6.666666666666667" stroke-miterlimit="800.0" stroke-linecap="butt" d="m293.15747 396.432l51.442413 35.44388" fill-rule="evenodd"/><path fill="#000000" fill-opacity="0.0" d="m295.76126 472.3117l-16.906555 93.5791" fill-rule="evenodd"/><path stroke="#000000" stroke-width="6.666666666666667" stroke-miterlimit="800.0" stroke-linecap="butt" d="m295.76126 472.3117l-16.906555 93.5791" fill-rule="evenodd"/><path fill="#000000" fill-opacity="0.0" d="m278.22183 562.89374l7.5298767 55.138184" fill-rule="evenodd"/><path stroke="#000000" stroke-width="6.666666666666667" stroke-miterlimit="800.0" stroke-linecap="butt" d="m278.22183 562.89374l7.5298767 55.138184" fill-rule="evenodd"/><path fill="#000000" d="m691.8827 189.99165l0 0c0 -34.268356 19.843018 -62.048347 44.320557 -62.048347l0 0c11.754517 0 23.027649 6.5372086 31.339355 18.17353c8.311707 11.636322 12.98114 27.418564 12.98114 43.874817l0 0c0 34.268356 -19.842957 62.04834 -44.320496 62.04834l0 0c-24.47754 0 -44.320557 -27.779984 -44.320557 -62.04834z" fill-rule="evenodd"/><path stroke="#000000" stroke-width="1.3333333333333333" stroke-miterlimit="800.0" stroke-linecap="butt" d="m691.8827 189.99165l0 0c0 -34.268356 19.843018 -62.048347 44.320557 -62.048347l0 0c11.754517 0 23.027649 6.5372086 31.339355 18.17353c8.311707 11.636322 12.98114 27.418564 12.98114 43.874817l0 0c0 34.268356 -19.842957 62.04834 -44.320496 62.04834l0 0c-24.47754 0 -44.320557 -27.779984 -44.320557 -62.04834z" fill-rule="evenodd"/><path fill="#000000" fill-opacity="0.0" d="m729.8492 245.55444l6.322937 170.1453" fill-rule="evenodd"/><path stroke="#000000" stroke-width="6.666666666666667" stroke-miterlimit="800.0" stroke-linecap="butt" d="m729.8492 245.55444l6.322937 170.1453" fill-rule="evenodd"/><path fill="#000000" fill-opacity="0.0" d="m736.3206 415.85596l58.661316 94.89661" fill-rule="evenodd"/><path stroke="#000000" stroke-width="6.666666666666667" stroke-miterlimit="800.0" stroke-linecap="butt" d="m736.3206 415.85596l58.661316 94.89661" fill-rule="evenodd"/><path fill="#000000" fill-opacity="0.0" d="m794.98193 509.43497l-14.45813 53.45877" fill-rule="evenodd"/><path stroke="#000000" stroke-width="6.666666666666667" stroke-miterlimit="800.0" stroke-linecap="butt" d="m794.98193 509.43497l-14.45813 53.45877" fill-rule="evenodd"/><path fill="#000000" fill-opacity="0.0" d="m734.6657 339.92096l-54.426147 0.53027344" fill-rule="evenodd"/><path stroke="#000000" stroke-width="6.666666666666667" stroke-miterlimit="800.0" stroke-linecap="butt" d="m734.6657 339.92096l-54.426147 0.53027344" fill-rule="evenodd"/><path fill="#000000" fill-opacity="0.0" d="m794.98193 313.1329l-12.272522 38.658386" fill-rule="evenodd"/><path stroke="#000000" stroke-width="6.666666666666667" stroke-miterlimit="800.0" stroke-linecap="butt" d="m794.98193 313.1329l-12.272522 38.658386" fill-rule="evenodd"/><path fill="#000000" fill-opacity="0.0" d="m734.6655 339.13354l49.701843 10.617859" fill-rule="evenodd"/><path stroke="#000000" stroke-width="6.666666666666667" stroke-miterlimit="800.0" stroke-linecap="butt" d="m734.6655 339.13354l49.701843 10.617859" fill-rule="evenodd"/><path fill="#000000" fill-opacity="0.0" d="m737.2693 415.01324l-16.906555 93.5791" fill-rule="evenodd"/><path stroke="#000000" stroke-width="6.666666666666667" stroke-miterlimit="800.0" stroke-linecap="butt" d="m737.2693 415.01324l-16.906555 93.5791" fill-rule="evenodd"/><path fill="#000000" fill-opacity="0.0" d="m719.7299 505.59528l7.529846 55.138184" fill-rule="evenodd"/><path stroke="#000000" stroke-width="6.666666666666667" stroke-miterlimit="800.0" stroke-linecap="butt" d="m719.7299 505.59528l7.529846 55.138184" fill-rule="evenodd"/><path fill="#000000" fill-opacity="0.0" d="m658.61993 323.07013l28.52655 18.783722" fill-rule="evenodd"/><path stroke="#000000" stroke-width="6.666666666666667" stroke-miterlimit="800.0" stroke-linecap="butt" d="m658.61993 323.07013l28.52655 18.783722" fill-rule="evenodd"/><path fill="#000000" fill-opacity="0.0" d="m431.54056 282.87204l37.996124 -6.3373413" fill-rule="evenodd"/><path stroke="#000000" stroke-width="6.666666666666667" stroke-miterlimit="800.0" stroke-linecap="butt" d="m431.54056 282.87204l37.996124 -6.3373413" fill-rule="evenodd"/><path fill="#000000" d="m421.47925 141.37633l0 0c0 -32.354233 20.142029 -58.58252 44.988495 -58.58252l0 0c11.931702 0 23.374695 6.1720657 31.811676 17.158417c8.436981 10.986359 13.176819 25.887047 13.176819 41.424103l0 0c0 32.354233 -20.142029 58.58252 -44.988495 58.58252l0 0c-24.846466 0 -44.988495 -26.228287 -44.988495 -58.58252z" fill-rule="evenodd"/><path stroke="#000000" stroke-width="1.3333333333333333" stroke-miterlimit="800.0" stroke-linecap="butt" d="m421.47925 141.37633l0 0c0 -32.354233 20.142029 -58.58252 44.988495 -58.58252l0 0c11.931702 0 23.374695 6.1720657 31.811676 17.158417c8.436981 10.986359 13.176819 25.887047 13.176819 41.424103l0 0c0 32.354233 -20.142029 58.58252 -44.988495 58.58252l0 0c-24.846466 0 -44.988495 -26.228287 -44.988495 -58.58252z" fill-rule="evenodd"/><path fill="#000000" fill-opacity="0.0" d="m466.72482 200.564l5.6237183 148.79865" fill-rule="evenodd"/><path stroke="#000000" stroke-width="6.666666666666667" stroke-miterlimit="800.0" stroke-linecap="butt" d="m466.72482 200.564l5.6237183 148.79865" fill-rule="evenodd"/><path fill="#000000" fill-opacity="0.0" d="m471.5773 344.6639l52.17398 82.99075" fill-rule="evenodd"/><path stroke="#000000" stroke-width="6.666666666666667" stroke-miterlimit="800.0" stroke-linecap="butt" d="m471.5773 344.6639l52.17398 82.99075" fill-rule="evenodd"/><path fill="#000000" fill-opacity="0.0" d="m523.16046 426.2464l-1.598999 46.7518" fill-rule="evenodd"/><path stroke="#000000" stroke-width="6.666666666666667" stroke-miterlimit="800.0" stroke-linecap="butt" d="m523.16046 426.2464l-1.598999 46.7518" fill-rule="evenodd"/><path fill="#000000" fill-opacity="0.0" d="m508.87497 250.38603l-1.3572693 33.80818" fill-rule="evenodd"/><path stroke="#000000" stroke-width="6.666666666666667" stroke-miterlimit="800.0" stroke-linecap="butt" d="m508.87497 250.38603l-1.3572693 33.80818" fill-rule="evenodd"/><path fill="#000000" fill-opacity="0.0" d="m468.411 278.2292l42.419006 4.6428223" fill-rule="evenodd"/><path stroke="#000000" stroke-width="6.666666666666667" stroke-miterlimit="800.0" stroke-linecap="butt" d="m468.411 278.2292l42.419006 4.6428223" fill-rule="evenodd"/><path fill="#000000" fill-opacity="0.0" d="m471.40628 346.1731l-1.8695984 81.83853" fill-rule="evenodd"/><path stroke="#000000" stroke-width="6.666666666666667" stroke-miterlimit="800.0" stroke-linecap="butt" d="m471.40628 346.1731l-1.8695984 81.83853" fill-rule="evenodd"/><path fill="#000000" fill-opacity="0.0" d="m469.95822 426.0247l6.697113 48.22046" fill-rule="evenodd"/><path stroke="#000000" stroke-width="6.666666666666667" stroke-miterlimit="800.0" stroke-linecap="butt" d="m469.95822 426.0247l6.697113 48.22046" fill-rule="evenodd"/><path fill="#000000" fill-opacity="0.0" d="m409.95328 256.45868l22.093353 29.087982" fill-rule="evenodd"/><path stroke="#000000" stroke-width="6.666666666666667" stroke-miterlimit="800.0" stroke-linecap="butt" d="m409.95328 256.45868l22.093353 29.087982" fill-rule="evenodd"/><path fill="#000000" fill-opacity="0.0" d="m563.5032 281.6251l37.996155 -6.3373413" fill-rule="evenodd"/><path stroke="#000000" stroke-width="6.666666666666667" stroke-miterlimit="800.0" stroke-linecap="butt" d="m563.5032 281.6251l37.996155 -6.3373413" fill-rule="evenodd"/><path fill="#000000" d="m553.4419 140.1294l0 0c0 -32.354233 20.142029 -58.58252 44.988525 -58.58252l0 0c11.931641 0 23.374634 6.1720657 31.811646 17.158424c8.436951 10.986351 13.176819 25.887047 13.176819 41.424095l0 0c0 32.354233 -20.142029 58.58252 -44.988464 58.58252l0 0c-24.846497 0 -44.988525 -26.228287 -44.988525 -58.58252z" fill-rule="evenodd"/><path stroke="#000000" stroke-width="1.3333333333333333" stroke-miterlimit="800.0" stroke-linecap="butt" d="m553.4419 140.1294l0 0c0 -32.354233 20.142029 -58.58252 44.988525 -58.58252l0 0c11.931641 0 23.374634 6.1720657 31.811646 17.158424c8.436951 10.986351 13.176819 25.887047 13.176819 41.424095l0 0c0 32.354233 -20.142029 58.58252 -44.988464 58.58252l0 0c-24.846497 0 -44.988525 -26.228287 -44.988525 -58.58252z" fill-rule="evenodd"/><path fill="#000000" fill-opacity="0.0" d="m598.68744 199.31705l5.6237183 148.79865" fill-rule="evenodd"/><path stroke="#000000" stroke-width="6.666666666666667" stroke-miterlimit="800.0" stroke-linecap="butt" d="m598.68744 199.31705l5.6237183 148.79865" fill-rule="evenodd"/><path fill="#000000" fill-opacity="0.0" d="m603.5399 343.41702l52.17401 82.99075" fill-rule="evenodd"/><path stroke="#000000" stroke-width="6.666666666666667" stroke-miterlimit="800.0" stroke-linecap="butt" d="m603.5399 343.41702l52.17401 82.99075" fill-rule="evenodd"/><path fill="#000000" fill-opacity="0.0" d="m655.12305 424.99948l-1.598938 46.7518" fill-rule="evenodd"/><path stroke="#000000" stroke-width="6.666666666666667" stroke-miterlimit="800.0" stroke-linecap="butt" d="m655.12305 424.99948l-1.598938 46.7518" fill-rule="evenodd"/><path fill="#000000" fill-opacity="0.0" d="m640.8376 249.13911l-1.3572388 33.80818" fill-rule="evenodd"/><path stroke="#000000" stroke-width="6.666666666666667" stroke-miterlimit="800.0" stroke-linecap="butt" d="m640.8376 249.13911l-1.3572388 33.80818" fill-rule="evenodd"/><path fill="#000000" fill-opacity="0.0" d="m600.37366 276.98227l42.419006 4.6428223" fill-rule="evenodd"/><path stroke="#000000" stroke-width="6.666666666666667" stroke-miterlimit="800.0" stroke-linecap="butt" d="m600.37366 276.98227l42.419006 4.6428223" fill-rule="evenodd"/><path fill="#000000" fill-opacity="0.0" d="m603.36896 344.92618l-1.8696289 81.83853" fill-rule="evenodd"/><path stroke="#000000" stroke-width="6.666666666666667" stroke-miterlimit="800.0" stroke-linecap="butt" d="m603.36896 344.92618l-1.8696289 81.83853" fill-rule="evenodd"/><path fill="#000000" fill-opacity="0.0" d="m601.92084 424.7777l6.6971436 48.22049" fill-rule="evenodd"/><path stroke="#000000" stroke-width="6.666666666666667" stroke-miterlimit="800.0" stroke-linecap="butt" d="m601.92084 424.7777l6.6971436 48.22049" fill-rule="evenodd"/><path fill="#000000" fill-opacity="0.0" d="m541.9159 255.21176l22.093323 29.087982" fill-rule="evenodd"/><path stroke="#000000" stroke-width="6.666666666666667" stroke-miterlimit="800.0" stroke-linecap="butt" d="m541.9159 255.21176l22.093323 29.087982" fill-rule="evenodd"/><path fill="#000000" fill-opacity="0.0" d="m336.71863 300.48703l37.996124 -6.3374023" fill-rule="evenodd"/><path stroke="#000000" stroke-width="6.666666666666667" stroke-miterlimit="800.0" stroke-linecap="butt" d="m336.71863 300.48703l37.996124 -6.3374023" fill-rule="evenodd"/><path fill="#000000" d="m327.94815 164.14662l0 0c0 -32.354233 20.142029 -58.58252 44.988495 -58.58252l0 0c11.931702 0 23.374695 6.1720657 31.811676 17.158417c8.436981 10.986359 13.176819 25.887054 13.176819 41.424103l0 0c0 32.354233 -20.142029 58.58252 -44.988495 58.58252l0 0c-24.846466 0 -44.988495 -26.228287 -44.988495 -58.58252z" fill-rule="evenodd"/><path stroke="#000000" stroke-width="1.3333333333333333" stroke-miterlimit="800.0" stroke-linecap="butt" d="m327.94815 164.14662l0 0c0 -32.354233 20.142029 -58.58252 44.988495 -58.58252l0 0c11.931702 0 23.374695 6.1720657 31.811676 17.158417c8.436981 10.986359 13.176819 25.887054 13.176819 41.424103l0 0c0 32.354233 -20.142029 58.58252 -44.988495 58.58252l0 0c-24.846466 0 -44.988495 -26.228287 -44.988495 -58.58252z" fill-rule="evenodd"/><path fill="#000000" fill-opacity="0.0" d="m373.1937 223.33427l5.6237183 148.79863" fill-rule="evenodd"/><path stroke="#000000" stroke-width="6.666666666666667" stroke-miterlimit="800.0" stroke-linecap="butt" d="m373.1937 223.33427l5.6237183 148.79863" fill-rule="evenodd"/><path fill="#000000" fill-opacity="0.0" d="m378.04617 367.4342l52.17398 82.99078" fill-rule="evenodd"/><path stroke="#000000" stroke-width="6.666666666666667" stroke-miterlimit="800.0" stroke-linecap="butt" d="m378.04617 367.4342l52.17398 82.99078" fill-rule="evenodd"/><path fill="#000000" fill-opacity="0.0" d="m429.6293 449.0167l-1.598938 46.7518" fill-rule="evenodd"/><path stroke="#000000" stroke-width="6.666666666666667" stroke-miterlimit="800.0" stroke-linecap="butt" d="m429.6293 449.0167l-1.598938 46.7518" fill-rule="evenodd"/><path fill="#000000" fill-opacity="0.0" d="m415.34384 273.15634l-1.3572693 33.808167" fill-rule="evenodd"/><path stroke="#000000" stroke-width="6.666666666666667" stroke-miterlimit="800.0" stroke-linecap="butt" d="m415.34384 273.15634l-1.3572693 33.808167" fill-rule="evenodd"/><path fill="#000000" fill-opacity="0.0" d="m374.87988 300.99948l42.419006 4.6428223" fill-rule="evenodd"/><path stroke="#000000" stroke-width="6.666666666666667" stroke-miterlimit="800.0" stroke-linecap="butt" d="m374.87988 300.99948l42.419006 4.6428223" fill-rule="evenodd"/><path fill="#000000" fill-opacity="0.0" d="m359.98163 413.92996l-1.8695984 81.83853" fill-rule="evenodd"/><path stroke="#000000" stroke-width="6.666666666666667" stroke-miterlimit="800.0" stroke-linecap="butt" d="m359.98163 413.92996l-1.8695984 81.83853" fill-rule="evenodd"/><path fill="#000000" fill-opacity="0.0" d="m376.94897 364.78604l-16.668762 52.009033" fill-rule="evenodd"/><path stroke="#000000" stroke-width="6.666666666666667" stroke-miterlimit="800.0" stroke-linecap="butt" d="m376.94897 364.78604l-16.668762 52.009033" fill-rule="evenodd"/><path fill="#000000" fill-opacity="0.0" d="m315.13135 274.0736l23.666138 23.846802" fill-rule="evenodd"/><path stroke="#000000" stroke-width="6.666666666666667" stroke-miterlimit="800.0" stroke-linecap="butt" d="m315.13135 274.0736l23.666138 23.846802" fill-rule="evenodd"/></g></svg>