<svg version="1.1" viewBox="0.0 0.0 1280.0 720.0" fill="none" stroke="none" stroke-linecap="square" stroke-miterlimit="10" xmlns:xlink="http://www.w3.org/1999/xlink" xmlns="http://www.w3.org/2000/svg"><clipPath id="p3.0"><path d="m0 0l1280.0 0l0 720.0l-1280.0 0l0 -720.0z" clip-rule="nonzero"/></clipPath><g clip-path="url(#p3.0)"><path fill="#000000" fill-opacity="0.0" d="m0 0l1280.0 0l0 720.0l-1280.0 0z" fill-rule="evenodd"/><path fill="#000000" fill-opacity="0.0" d="m376.1311 314.75412l47.213013 -48.786865" fill-rule="evenodd"/><path stroke="#000000" stroke-width="6.666666666666667" stroke-miterlimit="800.0" stroke-linecap="butt" d="m376.1311 314.75412l47.213013 -48.786865" fill-rule="evenodd"/><path fill="#000000" fill-opacity="0.0" d="m372.98364 265.96725l50.360626 45.63925" fill-rule="evenodd"/><path stroke="#000000" stroke-width="6.666666666666667" stroke-miterlimit="800.0" stroke-linecap="butt" d="m372.98364 265.96725l50.360626 45.63925" fill-rule="evenodd"/><path fill="#000000" fill-opacity="0.0" d="m491.80295 141.90163l47.213043 -48.786873" fill-rule="evenodd"/><path stroke="#000000" stroke-width="6.666666666666667" stroke-miterlimit="800.0" stroke-linecap="butt" d="m491.80295 141.90163l47.213043 -48.786873" fill-rule="evenodd"/><path fill="#000000" fill-opacity="0.0" d="m488.65543 93.114746l50.360626 45.639267" fill-rule="evenodd"/><path stroke="#000000" stroke-width="6.666666666666667" stroke-miterlimit="800.0" stroke-linecap="butt" d="m488.65543 93.114746l50.360626 45.639267" fill-rule="evenodd"/><path fill="#000000" fill-opacity="0.0" d="m449.377 313.44254l47.213013 -48.786896" fill-rule="evenodd"/><path stroke="#000000" stroke-width="6.666666666666667" stroke-miterlimit="800.0" stroke-linecap="butt" d="m449.377 313.44254l47.213013 -48.786896" fill-rule="evenodd"/><path fill="#000000" fill-opacity="0.0" d="m446.22928 264.65564l50.360657 45.63925" fill-rule="evenodd"/><path stroke="#000000" stroke-width="6.666666666666667" stroke-miterlimit="800.0" stroke-linecap="butt" d="m446.22928 264.65564l50.360657 45.63925" fill-rule="evenodd"/><path fill="#000000" fill-opacity="0.0" d="m535.4753 313.96747l47.213013 -48.786896" fill-rule="evenodd"/><path stroke="#000000" stroke-width="6.666666666666667" stroke-miterlimit="800.0" stroke-linecap="butt" d="m535.4753 313.96747l47.213013 -48.786896" fill-rule="evenodd"/><path fill="#000000" fill-opacity="0.0" d="m532.32776 265.18057l50.360657 45.63925" fill-rule="evenodd"/><path stroke="#000000" stroke-width="6.666666666666667" stroke-miterlimit="800.0" stroke-linecap="butt" d="m532.32776 265.18057l50.360657 45.63925" fill-rule="evenodd"/><path fill="#000000" fill-opacity="0.0" d="m659.67206 313.96735l47.213013 -48.786774" fill-rule="evenodd"/><path stroke="#000000" stroke-width="6.666666666666667" stroke-miterlimit="800.0" stroke-linecap="butt" d="m659.67206 313.96735l47.213013 -48.786774" fill-rule="evenodd"/><path fill="#000000" fill-opacity="0.0" d="m660.98364 265.96725l44.589905 48.00009" fill-rule="evenodd"/><path stroke="#000000" stroke-width="6.666666666666667" stroke-miterlimit="800.0" stroke-linecap="butt" d="m660.98364 265.96725l44.589905 48.00009" fill-rule="evenodd"/><path fill="#000000" fill-opacity="0.0" d="m755.14746 314.75412l47.213013 -48.786865" fill-rule="evenodd"/><path stroke="#000000" stroke-width="6.666666666666667" stroke-miterlimit="800.0" stroke-linecap="butt" d="m755.14746 314.75412l47.213013 -48.786865" fill-rule="evenodd"/><path fill="#000000" fill-opacity="0.0" d="m752.0 265.96725l50.360657 45.63925" fill-rule="evenodd"/><path stroke="#000000" stroke-width="6.666666666666667" stroke-miterlimit="800.0" stroke-linecap="butt" d="m752.0 265.96725l50.360657 45.63925" fill-rule="evenodd"/><path fill="#000000" fill-opacity="0.0" d="m658.3604 151.6065l47.213013 -48.78688" fill-rule="evenodd"/><path stroke="#000000" stroke-width="6.666666666666667" stroke-miterlimit="800.0" stroke-linecap="butt" d="m658.3604 151.6065l47.213013 -48.78688" fill-rule="evenodd"/><path fill="#000000" fill-opacity="0.0" d="m655.21295 102.81963l50.360596 45.639275" fill-rule="evenodd"/><path stroke="#000000" stroke-width="6.666666666666667" stroke-miterlimit="800.0" stroke-linecap="butt" d="m655.21295 102.81963l50.360596 45.639275" fill-rule="evenodd"/><path fill="#000000" fill-opacity="0.0" d="m211.21324 317.63895l47.212997 -48.786865" fill-rule="evenodd"/><path stroke="#000000" stroke-width="6.666666666666667" stroke-miterlimit="800.0" stroke-linecap="butt" d="m211.21324 317.63895l47.212997 -48.786865" fill-rule="evenodd"/><path fill="#000000" fill-opacity="0.0" d="m211.21313 269.11484l50.360626 45.639282" fill-rule="evenodd"/><path stroke="#000000" stroke-width="6.666666666666667" stroke-miterlimit="800.0" stroke-linecap="butt" d="m211.21313 269.11484l50.360626 45.639282" fill-rule="evenodd"/><path fill="#000000" fill-opacity="0.0" d="m866.3614 313.44254l47.213013 -48.786896" fill-rule="evenodd"/><path stroke="#000000" stroke-width="6.666666666666667" stroke-miterlimit="800.0" stroke-linecap="butt" d="m866.3614 313.44254l47.213013 -48.786896" fill-rule="evenodd"/><path fill="#000000" fill-opacity="0.0" d="m863.2138 264.65564l50.360657 45.63925" fill-rule="evenodd"/><path stroke="#000000" stroke-width="6.666666666666667" stroke-miterlimit="800.0" stroke-linecap="butt" d="m863.2138 264.65564l50.360657 45.63925" fill-rule="evenodd"/><path fill="#000000" fill-opacity="0.0" d="m560.65546 74.49176l47.213013 -48.78688" fill-rule="evenodd"/><path stroke="#000000" stroke-width="6.666666666666667" stroke-miterlimit="800.0" stroke-linecap="butt" d="m560.65546 74.49176l47.213013 -48.78688" fill-rule="evenodd"/><path fill="#000000" fill-opacity="0.0" d="m557.50793 25.704882l50.360596 45.639267" fill-rule="evenodd"/><path stroke="#000000" stroke-width="6.666666666666667" stroke-miterlimit="800.0" stroke-linecap="butt" d="m557.50793 25.704882l50.360596 45.639267" fill-rule="evenodd"/><path fill="#000000" fill-opacity="0.0" d="m284.32733 242.88525l47.213043 -48.78688" fill-rule="evenodd"/><path stroke="#000000" stroke-width="6.666666666666667" stroke-miterlimit="800.0" stroke-linecap="butt" d="m284.32733 242.88525l47.213043 -48.78688" fill-rule="evenodd"/><path fill="#000000" fill-opacity="0.0" d="m281.17984 194.09836l50.360657 45.639267" fill-rule="evenodd"/><path stroke="#000000" stroke-width="6.666666666666667" stroke-miterlimit="800.0" stroke-linecap="butt" d="m281.17984 194.09836l50.360657 45.639267" fill-rule="evenodd"/><path fill="#000000" d="m369.836 360.3932l0 0c0 -15.64505 12.6828 -28.32788 28.32782 -28.32788l0 0c7.5130005 0 14.718292 2.9845276 20.030792 8.297058c5.3125 5.3125 8.297028 12.517792 8.297028 20.030823l0 0c0 15.64505 -12.6828 28.32788 -28.32782 28.32788l0 0c-15.64502 0 -28.32782 -12.682831 -28.32782 -28.32788zm7.040039 0l0 0c0 11.756958 9.530853 21.287842 21.28778 21.287842c11.7569275 0 21.28778 -9.530884 21.28778 -21.287842l0 0c0 -11.756958 -9.530853 -21.287842 -21.28778 -21.287842l0 0c-11.7569275 0 -21.28778 9.530884 -21.28778 21.287842z" fill-rule="evenodd"/><path fill="#000000" d="m306.36023 401.57385l0 0c0 -15.64505 12.68277 -28.32788 28.32782 -28.32788l0 0c7.5130005 0 14.718292 2.984558 20.030792 8.297058c5.3125 5.3125 8.297028 12.517792 8.297028 20.030823l0 0c0 15.64505 -12.6828 28.32788 -28.32782 28.32788l0 0c-15.64505 0 -28.32782 -12.682831 -28.32782 -28.32788zm7.0400085 0l0 0c0 11.756958 9.530884 21.287842 21.287811 21.287842c11.756897 0 21.28778 -9.530884 21.28778 -21.287842l0 0c0 -11.756958 -9.530884 -21.287842 -21.28778 -21.287842l0 0c-11.7569275 0 -21.287811 9.530884 -21.287811 21.287842z" fill-rule="evenodd"/><path fill="#000000" d="m439.3433 360.3932l0 0c0 -15.64505 12.6828 -28.32788 28.32782 -28.32788l0 0c7.5130005 0 14.718292 2.9845276 20.030792 8.297058c5.3125 5.3125 8.297028 12.517792 8.297028 20.030823l0 0c0 15.64505 -12.6828 28.32788 -28.32782 28.32788l0 0c-15.64502 0 -28.32782 -12.682831 -28.32782 -28.32788zm7.040039 0l0 0c0 11.756958 9.530853 21.287842 21.28778 21.287842c11.7569275 0 21.287811 -9.530884 21.287811 -21.287842l0 0c0 -11.756958 -9.530884 -21.287842 -21.287811 -21.287842l0 0c-11.7569275 0 -21.28778 9.530884 -21.28778 21.287842z" fill-rule="evenodd"/><path fill="#000000" d="m635.8022 359.0821l0 0c0 -15.64505 12.6828 -28.32788 28.32782 -28.32788l0 0c7.5130005 0 14.718323 2.984558 20.030823 8.297058c5.3125 5.3125 8.296997 12.517822 8.296997 20.030823l0 0c0 15.64505 -12.6828 28.32788 -28.32782 28.32788l0 0c-15.64502 0 -28.32782 -12.682831 -28.32782 -28.32788zm7.040039 0l0 0c0 11.756958 9.530884 21.287842 21.28778 21.287842c11.756958 0 21.287842 -9.530884 21.287842 -21.287842l0 0c0 -11.756958 -9.530884 -21.287842 -21.287842 -21.287842l0 0c-11.756897 0 -21.28778 9.530884 -21.28778 21.287842z" fill-rule="evenodd"/><path fill="#000000" d="m566.2949 359.0821l0 0c0 -15.64505 12.6828 -28.32788 28.32782 -28.32788l0 0c7.5130005 0 14.718262 2.984558 20.030762 8.297058c5.3125 5.3125 8.297058 12.517822 8.297058 20.030823l0 0c0 15.64505 -12.6828 28.32788 -28.32782 28.32788l0 0c-15.64502 0 -28.32782 -12.682831 -28.32782 -28.32788zm7.040039 0l0 0c0 11.756958 9.530823 21.287842 21.28778 21.287842c11.756897 0 21.28778 -9.530884 21.28778 -21.287842l0 0c0 -11.756958 -9.530884 -21.287842 -21.28778 -21.287842l0 0c-11.756958 0 -21.28778 9.530884 -21.28778 21.287842z" fill-rule="evenodd"/><path fill="#000000" d="m510.16165 409.70508l0 0c0 -15.64505 12.682831 -28.32785 28.32785 -28.32785l0 0c7.5130005 0 14.718262 2.9845276 20.030762 8.297028c5.3125 5.3125 8.297058 12.517822 8.297058 20.030823l0 0c0 15.64505 -12.6828 28.32788 -28.32782 28.32788l0 0c-15.64502 0 -28.32785 -12.682831 -28.32785 -28.32788zm7.0400696 0l0 0c0 11.756958 9.530823 21.287842 21.28778 21.287842c11.756897 0 21.28778 -9.530884 21.28778 -21.287842l0 0c0 -11.7569275 -9.530884 -21.287842 -21.28778 -21.287842l0 0c-11.756958 0 -21.28778 9.530914 -21.28778 21.287842z" fill-rule="evenodd"/><path fill="#000000" d="m986.92053 359.34445l0 0c0 -15.64505 12.6828 -28.32785 28.32782 -28.32785l0 0c7.5130005 0 14.718323 2.9845276 20.030823 8.297028c5.3125 5.3125 8.296997 12.517822 8.296997 20.030823l0 0c0 15.64505 -12.682861 28.32788 -28.32782 28.32788l0 0c-15.64502 0 -28.32782 -12.682831 -28.32782 -28.32788zm7.040039 0l0 0c0 11.756958 9.530823 21.287842 21.28778 21.287842c11.756897 0 21.28778 -9.530884 21.28778 -21.287842l0 0c0 -11.7569275 -9.530884 -21.287842 -21.28778 -21.287842l0 0c-11.756958 0 -21.28778 9.530914 -21.28778 21.287842z" fill-rule="evenodd"/><path fill="#000000" d="m579.5406 464.26288l0 0c0 -15.64505 12.682739 -28.32788 28.32782 -28.32788l0 0c7.5130005 0 14.718262 2.9845276 20.030762 8.297058c5.3125 5.3125 8.297058 12.517792 8.297058 20.030823l0 0c0 15.64505 -12.6828 28.32788 -28.32782 28.32788l0 0c-15.645081 0 -28.32782 -12.682831 -28.32782 -28.32788zm7.039978 0l0 0c0 11.756958 9.530884 21.287842 21.287842 21.287842c11.756897 0 21.28778 -9.530884 21.28778 -21.287842l0 0c0 -11.756958 -9.530884 -21.287842 -21.28778 -21.287842l0 0c-11.756958 0 -21.287842 9.530884 -21.287842 21.287842z" fill-rule="evenodd"/><path fill="#000000" d="m734.42596 360.3932l0 0c0 -15.64505 12.682739 -28.32788 28.32782 -28.32788l0 0c7.5130005 0 14.718262 2.9845276 20.030762 8.297058c5.3125 5.3125 8.297058 12.517792 8.297058 20.030823l0 0c0 15.64505 -12.6828 28.32788 -28.32782 28.32788l0 0c-15.645081 0 -28.32782 -12.682831 -28.32782 -28.32788zm7.039978 0l0 0c0 11.756958 9.530884 21.287842 21.287842 21.287842c11.756897 0 21.28778 -9.530884 21.28778 -21.287842l0 0c0 -11.756958 -9.530884 -21.287842 -21.28778 -21.287842l0 0c-11.756958 0 -21.287842 9.530884 -21.287842 21.287842z" fill-rule="evenodd"/><path fill="#000000" d="m831.7386 363.80313l0 0c0 -15.64505 12.6828 -28.32785 28.32782 -28.32785l0 0c7.5130005 0 14.718323 2.9845276 20.030823 8.297028c5.3125 5.3125 8.296997 12.517822 8.296997 20.030823l0 0c0 15.645081 -12.6828 28.32788 -28.32782 28.32788l0 0c-15.64502 0 -28.32782 -12.6828 -28.32782 -28.32788zm7.040039 0l0 0c0 11.756958 9.530884 21.287872 21.28778 21.287872c11.756958 0 21.28778 -9.530914 21.28778 -21.287872l0 0c0 -11.7569275 -9.530823 -21.287842 -21.28778 -21.287842l0 0c-11.756897 0 -21.28778 9.530914 -21.28778 21.287842z" fill-rule="evenodd"/><path fill="#000000" d="m178.16411 373.24597l0 0c0 -15.64505 12.682785 -28.32788 28.32782 -28.32788l0 0c7.5130005 0 14.718292 2.984558 20.030792 8.297058c5.3125 5.3125 8.297028 12.517822 8.297028 20.030823l0 0c0 15.64505 -12.6828 28.32788 -28.32782 28.32788l0 0c-15.645035 0 -28.32782 -12.682831 -28.32782 -28.32788zm7.040024 0l0 0c0 11.756958 9.530869 21.287842 21.287796 21.287842c11.756912 0 21.28778 -9.530884 21.28778 -21.287842l0 0c0 -11.756958 -9.530869 -21.287842 -21.28778 -21.287842l0 0c-11.7569275 0 -21.287796 9.530884 -21.287796 21.287842z" fill-rule="evenodd"/></g></svg>